Coordinates
version=1
nRows=27
nColumns=12
inDegrees=yes

Units are S.I. units (second, meters, Newtons, ...)
Angles are in degrees

endheader
time	SC_y	SC_z	SC_x	AC_y	AC_z	AC_x	GH_y	GH_z	GH_yy	EL_x	PS_y
       0.0              -57.65           10.8          30.29          60.21         -11.09          19.61         -144.9          27.07         -161.5          19.15          72.84
   0.01897              -57.64           10.8          30.29          60.21         -11.09          19.61         -144.9          27.07         -161.5          19.15          72.85
   0.03795              -57.64           10.8           30.3          60.22         -11.09          19.61         -144.8          27.07         -161.5          19.16          72.86
   0.05692              -57.63          10.81           30.3          60.22         -11.09          19.61         -144.8          27.07         -161.4          19.17          72.86
    0.0759              -57.63          10.81          30.31          60.22         -11.09           19.6         -144.7          27.07         -161.4          19.18          72.87
   0.09487              -57.62          10.82          30.32          60.22         -11.09           19.6         -144.7          27.07         -161.4          19.18          72.88
    0.1138              -57.62          10.82          30.32          60.22         -11.09           19.6         -144.6          27.08         -161.3          19.19          72.89
    0.1328              -57.61          10.83          30.33          60.22         -11.09          19.59         -144.6          27.08         -161.3           19.2           72.9
    0.1518               -57.6          10.83          30.34          60.23         -11.09          19.59         -144.5          27.08         -161.2          19.21          72.91
    0.1708               -57.6          10.84          30.35          60.23         -11.09          19.59         -144.4          27.08         -161.2          19.22          72.92
    0.1897              -57.59          10.85          30.35          60.23         -11.09          19.58         -144.3          27.08         -161.2          19.24          72.93
    0.2087              -57.58          10.86          30.36          60.23         -11.09          19.58         -144.3          27.08         -161.1          19.25          72.95
    0.2277              -57.57          10.86          30.37          60.24         -11.09          19.57         -144.2          27.08         -161.0          19.26          72.96
    0.2467              -57.56          10.87          30.38          60.24         -11.09          19.57         -144.1          27.09         -161.0          19.28          72.98
    0.2656              -57.55          10.88           30.4          60.24         -11.09          19.56         -144.0          27.09         -160.9          19.29          72.99
    0.2846              -57.54          10.89          30.41          60.24         -11.09          19.56         -143.9          27.09         -160.9          19.31          73.01
    0.3036              -57.53           10.9          30.42          60.25         -11.09          19.55         -143.7          27.09         -160.8          19.33          73.03
    0.3226              -57.51          10.92          30.44          60.25         -11.09          19.55         -143.6           27.1         -160.7          19.35          73.05
    0.3415               -57.5          10.93          30.45          60.26         -11.09          19.54         -143.5           27.1         -160.6          19.37          73.08
    0.3605              -57.48          10.94          30.47          60.26         -11.09          19.53         -143.3           27.1         -160.5           19.4           73.1
    0.3795              -57.46          10.96          30.49          60.26         -11.09          19.52         -143.1          27.11         -160.4          19.42          73.13
    0.3985              -57.44          10.98          30.51          60.27         -11.09          19.51         -142.9          27.11         -160.3          19.45          73.16
    0.4174              -57.42           11.0          30.54          60.28         -11.09           19.5         -142.7          27.11         -160.2          19.49           73.2
    0.4364              -57.39          11.02          30.56          60.28         -11.09          19.49         -142.5          27.12         -160.0          19.52          73.23
    0.4554              -57.37          11.04          30.59          60.29         -11.09          19.47         -142.2          27.12         -159.9          19.56          73.28
    0.4744              -57.34          11.07          30.63           60.3         -11.09          19.46         -141.9          27.13         -159.7          19.61          73.32
    0.4933               -57.3           11.1          30.66          60.31         -11.09          19.44         -141.6          27.14         -159.5          19.66          73.37
